<?xml version="1.0" encoding="UTF-8" standalone="no"?>
<svg
xmlns="http://www.w3.org/2000/svg"
version="1.1"
width="262"
height="66">
<path d="m 231.732,36.823 c 0,2.152 -0.308,4.53 0.031,6.652 0.169,1.055 2.473,0.207 2.802,-0.346 0.943,-1.587 1.14,-3.908 1.623,-5.667 0.99,-3.599 2.585,-7.039 4.253,-10.367 1.031,-2.061 1.283,-2.083 1.444,0.286 0.15,2.206 1.007,3.812 0.227,6.007 -0.579,1.631 -1.3,3.169 -1.815,4.833 -0.353,1.138 -0.87,4.616 -1.88,5.302 0.753,0.164 1.505,0.328 2.257,0.491 1.375,-2.722 5.262,-5.362 7.485,-7.416 2.154,-1.99 -1.163,0.744 -1.034,-0.941 -0.104,1.354 -1.181,2.844 -1.734,4.052 -0.69,1.508 -1.741,3.25 -1.72,4.955 0.022,1.835 3.604,0.494 4.263,0.131 4.766,-2.629 8.428,-7.243 11.852,-11.356 0.839,-1.008 -2.094,-0.81 -2.705,-0.084 -1.714,2.038 -6.432,7.481 -5.388,10.476 1.233,3.539 5.467,0.025 7.59,1.028 0.876,0.414 3.529,-0.844 2.301,-1.424 -1.711,-0.809 -3.891,0.069 -5.646,0.313 -3.534,0.491 2.925,-9.213 3.848,-10.31 -0.901,-0.028 -1.804,-0.056 -2.705,-0.084 -0.343,0.412 -10.536,10.458 -10.512,10.533 -0.812,-2.454 3.278,-6.243 3.481,-8.894 0.026,-0.352 -0.223,-0.579 -0.567,-0.627 -2.057,-0.288 -3.482,1.551 -4.837,2.825 -2.002,1.883 -5.417,4.246 -6.676,6.737 -0.627,1.239 1.758,0.83 2.256,0.491 2.971,-2.019 3.418,-8.266 4.787,-11.384 1.021,-2.324 -0.093,-4.057 -0.229,-6.432 -0.093,-1.617 -0.364,-3.258 -2.175,-3.596 -3.207,-0.598 -4.96,4.117 -5.944,6.217 -0.963,2.054 -1.915,4.146 -2.675,6.284 -0.812,2.284 -0.896,5.463 -2.128,7.536 0.934,-0.115 1.867,-0.23 2.801,-0.347 -0.317,-1.986 -0.029,-4.214 -0.029,-6.228 -0.002,-1.239 -2.902,-0.623 -2.902,0.354 l 0,0 z m -6.981,-3.327 c 3.856,0.938 -1.161,9.261 -2.004,10.637 -0.285,0.466 2.407,0.283 2.869,-0.471 1.053,-1.72 6.202,-10.218 1.496,-11.363 -0.723,-0.177 -3.291,0.97 -2.361,1.197 l 0,0 z m -15.847,0.054 c 0.253,-0.967 2.133,-1.028 3.33,-1.12 0.896,-0.068 1.787,-0.226 2.675,-0.355 0.337,-0.051 0.676,-0.089 1.017,-0.116 -1.11,0.105 -0.283,-1.401 -1.005,-0.215 -0.894,1.467 -1.701,2.97 -2.72,4.358 -1,1.364 -2.479,2 -3.578,3.219 -1.94,2.152 0.677,3.988 2.605,4.407 1.685,0.367 3.644,-0.09 5.226,-0.665 0.571,-0.207 1.114,-0.46 1.654,-0.735 0.204,-0.108 0.409,-0.214 0.617,-0.315 -1.21,0.604 -1.165,-0.894 -0.992,0.523 0.171,1.399 3.075,0.672 2.898,-0.777 -0.468,-3.832 -4.818,-0.528 -6.833,-0.22 -0.873,0.135 -2.493,0.197 -2.85,-0.855 -0.217,-0.641 1.848,-1.696 2.267,-2.072 1.496,-1.338 2.534,-3.142 3.535,-4.856 0.423,-0.726 2.06,-2.51 1.398,-3.422 -0.843,-1.163 -3.181,-0.448 -4.279,-0.289 -2.939,0.426 -6.957,0.061 -7.909,3.701 -0.377,1.446 2.597,1.129 2.944,-0.196 l 0,0 z m -12.131,-4.403 c -0.324,0.336 0.136,-0.111 0.192,-0.161 0.328,-0.291 0.686,-0.532 1.062,-0.757 1.632,-0.974 3.251,-0.167 4.556,0.969 0.729,0.636 3.421,-0.473 2.699,-1.102 -3.384,-2.949 -8.198,-2.046 -11.19,1.051 -0.498,0.516 0.422,0.77 0.764,0.77 0.708,0 1.423,-0.259 1.917,-0.77 l 0,0 z m 4.711,-10.876 c -1.85,1.69 -2.905,3.973 -3.551,6.348 -0.617,2.271 -0.142,4.952 -0.278,7.289 -0.191,3.25 -1.177,6.33 -2.848,9.11 -0.804,1.336 2.145,1.265 2.75,0.258 2.361,-3.928 3.072,-8.149 3.132,-12.692 0.047,-3.606 0.354,-6.968 3.191,-9.561 1.313,-1.2 -1.525,-1.548 -2.396,-0.752 l 0,0 z M 183.861,20.7 c 0.519,-0.576 0.964,-1.222 1.235,-1.95 0.477,-1.278 -0.297,-2.166 -1.544,-2.454 -0.689,-0.159 -1.538,0.049 -2.049,0.549 -0.444,0.434 -0.313,1.011 0.309,1.154 0.595,0.138 0.621,0.505 0.377,1.04 -0.134,0.293 -0.315,0.565 -0.503,0.826 -0.034,0.047 -0.069,0.094 -0.105,0.141 -0.165,0.216 0.152,-0.183 0.012,-0.014 -0.029,0.035 -0.059,0.07 -0.089,0.104 -0.414,0.459 -0.335,0.989 0.309,1.154 0.647,0.165 1.588,-0.039 2.048,-0.55 l 0,0 z m -7.559,7.339 c -3.077,1.708 -2.979,5.462 -3.01,8.617 -0.029,3.088 0.551,5.186 3.794,4.316 2.835,-0.761 5.281,-3.217 7.304,-5.197 2.51,-2.458 4.942,-5.224 6.517,-8.389 0.751,-1.51 0.583,-3.21 -1.534,-2.522 -1.972,0.641 -3.243,2.354 -4.376,4.005 -3.348,4.883 -5.537,12.603 1.521,15.188 0.801,0.293 3.441,-0.911 2.328,-1.318 -4.69,-1.718 -4.76,-6.001 -3.188,-10.103 0.691,-1.802 1.724,-3.469 2.887,-5.001 0.414,-0.544 0.871,-1.057 1.387,-1.506 -0.399,0.348 -1.236,-0.391 -1.599,0.89 -1.103,3.903 -5.324,7.685 -8.229,10.259 -0.794,0.703 -1.636,1.362 -2.527,1.938 -1.165,0.752 -0.917,0.187 -1.188,-1.179 -0.422,-2.122 -0.647,-7.993 1.674,-9.28 1.705,-0.948 -0.901,-1.195 -1.761,-0.718 l 0,0 z m -48.069,6.496 c 0.521,3.037 1.433,7.438 4.805,8.375 2.29,0.637 4.467,-2.291 5.615,-3.744 3.268,-4.138 5.75,-8.98 7.973,-13.739 1.834,-3.926 4.023,-8.718 3.504,-13.169 -0.11,-0.944 -2.942,-0.261 -2.897,0.776 0.264,6.208 2.435,11.875 3,18.083 0.27,2.963 0.011,16.962 5.675,14.617 3.19,-1.321 4.164,-9.64 5.113,-12.451 3.293,-9.75 8.703,-18.445 15.505,-26.124 0.813,-0.917 -2.095,-0.7 -2.689,-0.028 -9.229,10.416 -14.216,21.833 -18.297,34.906 -0.164,0.524 -0.353,1.038 -0.555,1.549 0.481,-1.218 -0.573,-3.739 -0.804,-5.007 -0.766,-4.198 -1.041,-8.457 -1.477,-12.695 -0.482,-4.684 -2.369,-8.813 -2.574,-13.626 -0.966,0.259 -1.932,0.518 -2.897,0.776 0.795,6.817 -4.323,14.964 -7.579,20.542 -1.577,2.701 -3.321,5.641 -5.666,7.754 -0.301,0.271 -2.687,-6.579 -2.858,-7.573 -0.162,-0.945 -3.074,-0.253 -2.897,0.778 l 0,0 z M 91.269,37.38 c 2.02,-2.698 3.685,-5.724 5.726,-8.373 -0.896,0.186 -1.792,0.373 -2.689,0.559 0.04,0.062 -1.047,2.9 -1.237,3.445 -0.578,1.663 -1.292,3.289 -1.767,4.984 -0.334,1.192 -1.886,7.549 0.452,7.521 2.167,-0.025 3.324,-2.293 4.42,-3.821 0.382,-0.532 0.771,-1.058 1.176,-1.573 1.25,-1.595 -1.463,-0.189 -2.001,0.661 -0.938,1.485 -1.988,2.445 -1.115,4.252 0.439,0.908 3.252,-0.044 2.897,-0.777 -1.075,-2.225 1.396,-3.055 1.494,-5.067 0.045,-0.948 -1.346,-0.748 -1.908,-0.569 -1.197,0.38 -1.876,1.301 -2.607,2.271 -0.681,0.903 -1.622,3.019 -2.648,3.533 0.594,-0.124 1.188,-0.248 1.782,-0.372 0.632,0.104 0.352,0.092 0.306,-0.667 -0.069,-1.135 0.071,-2.284 0.198,-3.41 0.191,-1.686 0.674,-3.239 1.275,-4.814 0.461,-1.21 2.75,-5.475 1.988,-6.681 -0.445,-0.705 -2.332,0.095 -2.689,0.559 -2.04,2.648 -3.706,5.675 -5.725,8.374 -0.722,0.962 2.165,0.643 2.672,-0.035 l 0,0 z m -3.721,-0.143 c -1.255,1.892 -3.013,4.434 -2.815,6.799 0.11,1.31 3.014,0.612 2.897,-0.777 -0.092,-1.095 0.791,-2.437 1.282,-3.354 0.429,-0.803 0.9,-1.589 1.403,-2.348 0.413,-0.621 -0.356,-1.143 -0.88,-1.204 -0.763,-0.089 -1.471,0.256 -1.887,0.884 l 0,0 z M 83.15,34.596 c 0.061,-0.068 0.238,-0.23 -0.041,0.03 0.086,-0.081 0.539,-0.407 0.37,-0.306 0.086,-0.049 0.174,-0.094 0.265,-0.134 -0.267,0.127 0.249,-0.032 -0.01,10e-4 0.125,-0.016 0.386,0.155 0.585,0.312 1.042,0.823 3.555,-0.653 2.226,-1.703 -1.827,-1.443 -4.377,-0.725 -5.831,0.903 -0.461,0.517 -0.24,1.215 0.388,1.446 0.703,0.259 1.558,0 2.048,-0.549 l 0,0 z m -2.553,2.323 c -1.458,1.477 -2.567,3.442 -3.106,5.437 -0.243,0.9 2.645,0.463 2.883,-0.418 0.509,-1.881 1.52,-3.672 2.894,-5.063 0.498,-0.504 -0.424,-0.714 -0.747,-0.709 -0.695,0.01 -1.431,0.254 -1.924,0.753 l 0,0 z m -10.055,0.542 c -0.349,1.193 -0.666,2.396 -0.946,3.607 -0.198,0.855 -0.853,2.645 0.014,3.328 0.498,0.393 1.233,0.26 1.763,0.036 1.285,-0.542 1.8,-2.978 2.29,-4.103 0.458,-1.053 0.951,-2.09 1.504,-3.096 0.245,-0.446 0.521,-0.866 0.827,-1.272 0.126,-0.168 0.266,-0.336 0.423,-0.477 0.369,-0.329 0.034,0.01 -0.103,0.009 1.686,0.013 2.198,-2.182 0.237,-2.197 -2.252,-0.018 -3.582,2.455 -4.487,4.16 -0.632,1.189 -1.161,2.434 -1.686,3.673 -0.201,0.473 -0.398,0.947 -0.604,1.418 -0.344,0.789 -0.427,0.403 0.294,0.099 0.588,0.013 1.176,0.024 1.764,0.036 0.245,0.716 0.354,0.834 0.33,0.354 0.017,-0.211 0.041,-0.421 0.074,-0.63 0.089,-0.655 0.246,-1.303 0.395,-1.946 0.205,-0.883 0.438,-1.76 0.692,-2.63 0.48,-1.64 -2.406,-1.655 -2.781,-0.369 l 0,0 z M 66.233,27.285 c -0.089,2.454 -1.271,3.16 -2.476,4.987 -2.084,3.158 -2.392,7.359 -2.524,11.014 -0.013,0.35 2.869,0.011 2.897,-0.777 0.139,-3.835 0.54,-7.841 2.703,-11.121 1.174,-1.779 2.21,-2.504 2.297,-4.879 0.014,-0.35 -2.868,-0.011 -2.897,0.776 l 0,0 z m -7.944,8.665 c -0.693,1.511 -1.554,3.392 -1.305,5.085 0.208,1.419 3.111,0.681 2.897,-0.777 -0.17,-1.16 0.697,-2.829 1.195,-3.915 0.711,-1.55 -2.218,-1.634 -2.787,-0.393 l 0,0 z M 51.987,25.429 c 0.079,-0.031 0.158,-0.059 0.238,-0.086 -0.805,0.278 0.758,-0.162 0.064,-0.021 0.118,-0.024 0.237,-0.04 0.356,-0.053 -0.218,0.013 -0.252,0.018 -0.104,0.014 0.287,-0.004 -0.269,-0.042 -0.004,0.008 -0.118,-0.022 -0.139,-0.045 -0.093,-0.001 -0.033,-0.074 -0.032,-0.07 0.003,0.012 0.031,0.073 0.033,0.157 0.037,0.234 0.028,0.578 1.354,0.343 1.625,0.27 0.474,-0.127 1.302,-0.438 1.272,-1.046 -0.053,-1.085 -1.549,-1.028 -2.306,-0.966 -0.738,0.061 -1.511,0.3 -2.198,0.572 -0.295,0.117 -1.255,0.64 -0.795,1.081 0.455,0.436 1.411,0.178 1.905,-0.018 l 0,0 z m -6.737,9.665 c -1.266,0.059 -2.421,0.591 -3.154,1.647 -0.759,1.092 -0.592,2.598 -0.654,3.847 -0.056,1.119 -0.297,2.283 -0.067,3.394 0.756,3.658 9.358,-3.125 10.309,-3.929 1.229,-1.039 2.957,-2.496 3.245,-4.182 0.295,-1.726 -1.944,-1.39 -2.847,-0.876 -2.089,1.189 -2.888,7.223 -0.806,8.593 0.768,0.506 3.456,-0.627 2.312,-1.381 -1.229,-0.81 -0.309,-4.063 -0.02,-5.146 0.108,-0.403 0.243,-0.819 0.428,-1.195 0.457,-0.922 -1.847,-0.292 -2.001,0.611 -0.165,0.961 -1.258,1.866 -1.913,2.492 -1.727,1.648 -3.804,3.222 -5.969,4.248 0.26,-0.123 0.227,-3.067 0.254,-3.617 0.04,-0.793 0.038,-1.535 0.219,-2.313 0.228,-0.974 0.619,-0.636 -0.472,-0.586 0.66,-0.03 1.502,-0.201 1.915,-0.783 0.388,-0.548 -0.326,-0.845 -0.779,-0.824 l 0,0 z m -10.637,7.305 c 0.687,-0.974 0.751,-2.298 0.773,-3.441 0.037,-1.88 1.069,-3.38 2.923,-3.834 0.262,-0.064 1.444,-0.405 1.321,-0.865 -0.125,-0.467 -1.313,-0.153 -1.577,-0.088 -2.135,0.522 -4.269,1.484 -5.192,3.607 -0.709,1.632 -0.041,3.598 -1.111,5.117 -0.318,0.45 1.079,0.331 1.169,0.314 0.582,-0.1 1.335,-0.3 1.694,-0.81 l 0,0 z M 16.097,35.754 c 1.2,1.54 2.457,3.038 3.75,4.5 0.782,0.883 3.549,-0.221 2.67,-1.215 -1.293,-1.462 -2.55,-2.959 -3.75,-4.5 -0.722,-0.925 -3.501,0.148 -2.67,1.215 l 0,0 z M 29.552,14.42 c -2.7,-1.228 -4.847,1.889 -5.191,4.048 -0.904,5.672 -1.668,11.242 -2.984,16.861 -1.528,6.527 -3.329,13.018 -5.649,19.311 -0.953,2.585 -2.045,5.137 -3.469,7.499 -1.406,2.334 -1.758,2.664 -3.128,0.119 -0.351,-0.652 -3.084,0.43 -2.897,0.777 5.068,9.417 12.2,-8.454 13.256,-11.49 2.393,-6.876 4.173,-13.984 5.713,-21.094 0.51,-2.354 0.973,-4.72 1.355,-7.098 0.138,-0.861 0.254,-1.726 0.323,-2.595 0.132,-1.655 0.343,-3.27 0.911,-4.838 0.491,-1.356 0.576,0.159 -0.979,-0.547 0.753,0.343 2.943,-0.859 2.739,-0.953 l 0,0 z M 63.736,6.507 C 66.112,4.685 60.598,1.504 59.531,0.977 56.347,-0.595 52.225,0.103 48.871,0.515 34.909,2.228 20.529,2.5 7.055,6.912 5.213,7.516 0.433,8.936 0.054,11.342 c -0.455,2.879 2.109,6.148 3.918,8.105 6.879,7.439 15.948,-0.271 20.135,-6.321 0.14,-0.202 -2.38,-0.136 -2.85,0.543 -2.838,4.102 -7.19,9.658 -12.673,6.38 C 6.381,18.732 4.852,16.384 3.759,14.125 0.245,6.864 13.743,5.806 18.369,4.949 27.641,3.231 37.121,2.967 46.461,1.724 c 3.038,-0.404 6.142,-0.897 9.17,-0.206 1.38,0.315 7.419,3.796 5.497,5.27 -0.554,0.423 2.084,0.121 2.608,-0.281 l 0,0 z" />
</svg>
