<?xml version="1.0" encoding="UTF-8"?>
<!DOCTYPE svg PUBLIC "-//W3C//DTD SVG 1.1//EN" "http://www.w3.org/Graphics/SVG/1.1/DTD/svg11.dtd">
<!-- Creator: CorelDRAW X5 -->
<svg xmlns="http://www.w3.org/2000/svg" xml:space="preserve" width="52.5248mm" height="28.3919mm" style="shape-rendering:geometricPrecision; text-rendering:geometricPrecision; image-rendering:optimizeQuality; fill-rule:evenodd; clip-rule:evenodd"
viewBox="0 0 1219164 659011"
 xmlns:xlink="http://www.w3.org/1999/xlink">
 <defs>
  <style type="text/css">
   <![CDATA[
    .str0 {stroke:black;stroke-width:8188.92}
    .fil0 {fill:none}
   ]]>
  </style>
 </defs>
 <g id="Layer_x0020_1">
  <metadata id="CorelCorpID_0Corel-Layer"/>
  <g id="_345785264">
   <path class="fil0 str0" d="M680351 194489c49881,-107621 248044,-154998 476816,-189944 80478,207819 75355,424802 -4289,649775 -186170,-35966 -362360,-87288 -473927,-238036 -139,-181 -290,-355 -429,-536 -5515,6239 -13565,10190 -22496,10190l-92887 0c-8902,0 -16928,-3923 -22441,-10125 -162,158 -332,313 -485,471 -111567,150748 -287756,202070 -473929,238036 -79645,-224972 -84765,-441955 -4289,-649775 228774,34947 426938,82323 476816,189944 5469,-7544 14349,-12476 24328,-12476l92887 0c9976,0 18854,4932 24325,12476z"/>
   <path class="fil0 str0" d="M700099 214980c1251,9563 3308,21533 2950,31899 153663,-16232 249644,-45550 400212,-8310 -142197,60221 -243845,27429 -398873,16083 715,27522 1430,55043 2145,82562 158897,17211 237980,19233 386005,91141 -171675,4976 -229164,-24708 -387077,-79881 -1588,58745 -11657,55459 -14630,23896 -5146,-54681 -10213,-182902 9268,-157391z"/>
   <path class="fil0 str0" d="M519063 217125c-1251,9563 -3305,21533 -2948,31899 -153665,-16232 -249644,-45550 -400212,-8310 142194,60221 243843,27429 398871,16083 -713,27522 -1427,55041 -2142,82562 -158897,17209 -237982,19233 -386005,91141 171672,4976 229164,-24708 387077,-79881 1588,58745 11657,55459 14628,23896 5148,-54681 10215,-182902 -9268,-157391z"/>
  </g>
 </g>
</svg>
