<?xml version="1.0" encoding="UTF-8"?>
<!DOCTYPE svg PUBLIC "-//W3C//DTD SVG 1.1//EN" "http://www.w3.org/Graphics/SVG/1.1/DTD/svg11.dtd">
<!-- Creator: CorelDRAW X5 -->
<svg xmlns="http://www.w3.org/2000/svg" xml:space="preserve" width="54.9275mm" height="43.5732mm" style="shape-rendering:geometricPrecision; text-rendering:geometricPrecision; image-rendering:optimizeQuality; fill-rule:evenodd; clip-rule:evenodd"
viewBox="0 0 2685935 2130714"
 xmlns:xlink="http://www.w3.org/1999/xlink">
 <defs>
  <style type="text/css">
   <![CDATA[
    .str0 {stroke:black;stroke-width:17251.8}
    .fil0 {fill:none}
   ]]>
  </style>
 </defs>
 <g id="Layer_x0020_1">
  <metadata id="CorelCorpID_0Corel-Layer"/>
  <g id="_345784184">
   <path class="fil0 str0" d="M1733419 8626l-780903 0c-248244,0 -451349,203105 -451349,451349l0 962369c-300527,72249 -492542,182352 -492542,305711 0,217613 597407,394033 1334344,394033 736937,0 1334344,-176420 1334344,-394033 0,-123359 -192014,-233466 -492547,-305716l0 -962364c0,-248244 -203105,-451349 -451349,-451349z"/>
   <path class="fil0 str0" d="M530571 1091748l3560 332958c222977,56606 496458,90655 808839,90655 312381,0 585867,-34049 808849,-90660l3545 -332948c-221613,55208 -504346,88318 -812394,88318 -308048,0 -590786,-33115 -812399,-88323z"/>
  </g>
 </g>
</svg>
