<?xml version="1.0" encoding="UTF-8"?>
<!DOCTYPE svg PUBLIC "-//W3C//DTD SVG 1.1//EN" "http://www.w3.org/Graphics/SVG/1.1/DTD/svg11.dtd">
<!-- Creator: CorelDRAW X5 -->
<svg xmlns="http://www.w3.org/2000/svg" xml:space="preserve" width="53.5103mm" height="42.2866mm" style="shape-rendering:geometricPrecision; text-rendering:geometricPrecision; image-rendering:optimizeQuality; fill-rule:evenodd; clip-rule:evenodd"
viewBox="0 0 105503029 83373937"
 xmlns:xlink="http://www.w3.org/1999/xlink">
 <defs>
  <style type="text/css">
   <![CDATA[
    .str0 {stroke:black;stroke-width:695594}
    .fil0 {fill:none}
   ]]>
  </style>
 </defs>
 <g id="Layer_x0020_1">
  <metadata id="CorelCorpID_0Corel-Layer"/>
  <g id="_345784400">
   <path class="fil0 str0" d="M91343502 3555063c-26036685,-4276881 -51147684,-4276684 -77183974,394 6047807,19736113 6970929,38289636 3347844,55794050 -22279922,-9196713 -20908253,2843499 -7067737,13329861 18208486,13796154 66416259,13795365 84623957,-197 13840319,-10486363 15211989,-22526772 -7067737,-13330058 -3623282,-17504414 -2699963,-36057937 3347647,-55794050z"/>
   <path class="fil0 str0" d="M21192563 47590846c-906757,4300738 -1551878,8462080 -2388839,12762818 20841808,6559448 47053969,6559448 67895777,0 -836961,-4300738 -1482082,-8462080 -2388839,-12762818 -21878299,5914130 -41239801,5914130 -63118100,0z"/>
  </g>
 </g>
</svg>
