<?xml version="1.0" encoding="UTF-8"?>
<!DOCTYPE svg PUBLIC "-//W3C//DTD SVG 1.1//EN" "http://www.w3.org/Graphics/SVG/1.1/DTD/svg11.dtd">
<!-- Creator: CorelDRAW X5 -->
<svg xmlns="http://www.w3.org/2000/svg" xml:space="preserve" width="60.5098mm" height="34.2258mm" style="shape-rendering:geometricPrecision; text-rendering:geometricPrecision; image-rendering:optimizeQuality; fill-rule:evenodd; clip-rule:evenodd"
viewBox="0 0 3248788 1837593"
 xmlns:xlink="http://www.w3.org/1999/xlink">
 <defs>
  <style type="text/css">
   <![CDATA[
    .str0 {stroke:black;stroke-width:18941.9}
    .fil0 {fill:none}
   ]]>
  </style>
 </defs>
 <g id="Layer_x0020_1">
  <metadata id="CorelCorpID_0Corel-Layer"/>
  <g id="_345785000">
   <path class="fil0 str0" d="M1740805 284381c26362,-86157 42598,-122731 109125,-191970 142247,-148029 292301,-89459 447600,108057 240559,418623 325739,873122 428336,1323594 87510,-28579 193387,-43382 309728,-50340 293305,-17508 241751,102006 24912,178295 -204936,72090 -451739,108326 -720529,138306 -451992,50399 -979182,50399 -1431173,0 -268790,-29981 -515593,-66216 -720529,-138306 -216839,-76289 -268392,-195803 24912,-178295 116341,6958 222219,21761 309728,50340 102597,-450472 187771,-904971 428330,-1323594 155304,-197516 305358,-256087 447605,-108057 66528,69239 82764,105813 109120,191970 54694,178697 178144,178697 232833,0z"/>
   <path class="fil0 str0" d="M641465 1270500c-28241,91923 -48332,180872 -74404,272795 649132,140201 1465524,140201 2114656,0 -26072,-91923 -46163,-180872 -74404,-272795 -681410,126408 -1284438,126408 -1965848,0z"/>
  </g>
 </g>
</svg>
