<?xml version="1.0" encoding="UTF-8"?>
<!DOCTYPE svg PUBLIC "-//W3C//DTD SVG 1.1//EN" "http://www.w3.org/Graphics/SVG/1.1/DTD/svg11.dtd">
<!-- Creator: CorelDRAW X5 -->
<svg xmlns="http://www.w3.org/2000/svg" xml:space="preserve" width="69.2955mm" height="42.8416mm" style="shape-rendering:geometricPrecision; text-rendering:geometricPrecision; image-rendering:optimizeQuality; fill-rule:evenodd; clip-rule:evenodd"
viewBox="0 0 5162464 3191668"
 xmlns:xlink="http://www.w3.org/1999/xlink">
 <defs>
  <style type="text/css">
   <![CDATA[
    .str0 {stroke:black;stroke-width:26283.3}
    .fil0 {fill:none}
   ]]>
  </style>
 </defs>
 <g id="Layer_x0020_1">
  <metadata id="CorelCorpID_0Corel-Layer"/>
  <path class="fil0 str0" d="M2581199 581668c519699,102809 850074,411445 1093523,191977 325167,-302177 522389,-329361 847615,277793 102206,345624 122335,658358 -15518,956004 -175051,289147 -314074,590288 -200850,975561 166744,218924 378315,288275 688627,28690 355436,-261731 51442,-2042368 -430390,-2668437 -161038,-381474 -1458435,-486301 -1983007,-23482 -524564,-462819 -1821895,-357991 -1982932,23482 -481832,626070 -785833,2406707 -430397,2668437 310319,259585 521882,190234 688634,-28690 113224,-385273 -25807,-686414 -200850,-975561 -137853,-297647 -117731,-610380 -15526,-956004 325234,-607154 520571,-577824 847615,-277793 241474,221516 573764,-89168 1093456,-191977z"/>
 </g>
</svg>
