<?xml version="1.0" encoding="UTF-8"?>
<!DOCTYPE svg PUBLIC "-//W3C//DTD SVG 1.1//EN" "http://www.w3.org/Graphics/SVG/1.1/DTD/svg11.dtd">
<!-- Creator: CorelDRAW X5 -->
<svg xmlns="http://www.w3.org/2000/svg" xml:space="preserve" width="69.2994mm" height="18.1221mm" style="shape-rendering:geometricPrecision; text-rendering:geometricPrecision; image-rendering:optimizeQuality; fill-rule:evenodd; clip-rule:evenodd"
viewBox="0 0 2098637 548803"
 xmlns:xlink="http://www.w3.org/1999/xlink">
 <defs>
  <style type="text/css">
   <![CDATA[
    .str0 {stroke:black;stroke-width:10684.1}
    .fil0 {fill:none}
   ]]>
  </style>
 </defs>
 <g id="Layer_x0020_1">
  <metadata id="CorelCorpID_0Corel-Layer"/>
  <path class="fil0 str0" d="M1612800 276053c94137,141588 322484,160788 337396,-80875 5642,-91405 -108755,-143096 -137373,-57239 -17174,62963 51515,51515 51515,28621 0,-23612 4521,-24375 16514,-10690 6965,7943 6644,26795 657,39308 -22231,46470 -135816,56518 -160270,5724 -74098,-153913 94436,-217512 211785,-188888 105653,25771 160270,91584 160270,206062 0,328199 -537116,454481 -653487,160264 -8068,-20393 -51322,86211 -129444,102419 -142179,29496 -224474,-9739 -261042,-75464 -36567,65725 -118869,104960 -261048,75464 -78123,-16208 -121380,-122812 -129447,-102419 -116368,294217 -653484,167935 -653484,-160264 0,-114478 54613,-180291 160270,-206062 117346,-28624 285880,34975 211782,188888 -24451,50795 -138039,40747 -160270,-5724 -5987,-12513 -6305,-31365 657,-39308 11992,-13685 16517,-12922 16517,10690 0,22894 68686,34342 51515,-28621 -28621,-85857 -143017,-34166 -137376,57239 14915,241663 243259,222463 337396,80875 252417,-379645 490413,-252944 563490,-76012 73074,-176932 311061,-303633 563475,76012z"/>
 </g>
</svg>
