<?xml version="1.0" encoding="UTF-8"?>
<!DOCTYPE svg PUBLIC "-//W3C//DTD SVG 1.1//EN" "http://www.w3.org/Graphics/SVG/1.1/DTD/svg11.dtd">
<!-- Creator: CorelDRAW X5 -->
<svg xmlns="http://www.w3.org/2000/svg" xml:space="preserve" width="69.2892mm" height="18.4812mm" style="shape-rendering:geometricPrecision; text-rendering:geometricPrecision; image-rendering:optimizeQuality; fill-rule:evenodd; clip-rule:evenodd"
viewBox="0 0 2098112 559620"
 xmlns:xlink="http://www.w3.org/1999/xlink">
 <defs>
  <style type="text/css">
   <![CDATA[
    .str0 {stroke:black;stroke-width:10683}
    .fil0 {fill:none}
   ]]>
  </style>
 </defs>
 <g id="Layer_x0020_1">
  <metadata id="CorelCorpID_0Corel-Layer"/>
  <path class="fil0 str0" d="M1046531 149843c59750,-156078 324135,-175588 324135,-15831 0,51219 46326,110984 108571,160865 66266,53103 150576,95014 216233,103511 156184,20215 219519,7779 279486,-67983 149952,-189456 -109749,-364444 -93957,-205974 6323,-4887 13620,-7691 21372,-7691 24064,0 43686,26889 43686,59865 0,32969 -19622,59859 -43686,59859 -68931,0 -111269,-207612 6395,-228636 245084,-43801 265990,473587 -62223,534082 -468173,86284 -417202,-305512 -797492,-316934 -380278,11422 -329307,403218 -797483,316934 -328210,-60494 -307308,-577882 -62223,-534082 117667,21024 75326,228636 6389,228636 -24058,0 -43683,-26889 -43683,-59859 0,-32975 19625,-59865 43683,-59865 7755,0 15052,2807 21381,7694 15788,-158473 -243910,16515 -93957,205971 59964,75762 123299,88198 279483,67983 65660,-8497 149970,-50408 216233,-103511 62248,-49881 108574,-109646 108574,-160865 0,-159757 259334,-140247 319084,15831z"/>
 </g>
</svg>
