<?xml version="1.0" encoding="UTF-8"?>
<!DOCTYPE svg PUBLIC "-//W3C//DTD SVG 1.1//EN" "http://www.w3.org/Graphics/SVG/1.1/DTD/svg11.dtd">
<!-- Creator: CorelDRAW X5 -->
<svg xmlns="http://www.w3.org/2000/svg" xml:space="preserve" width="69.2774mm" height="15.6913mm" style="shape-rendering:geometricPrecision; text-rendering:geometricPrecision; image-rendering:optimizeQuality; fill-rule:evenodd; clip-rule:evenodd"
viewBox="0 0 5158747 1168454"
 xmlns:xlink="http://www.w3.org/1999/xlink">
 <defs>
  <style type="text/css">
   <![CDATA[
    .str0 {stroke:black;stroke-width:26271.3}
    .fil0 {fill:none}
   ]]>
  </style>
 </defs>
 <g id="Layer_x0020_1">
  <metadata id="CorelCorpID_0Corel-Layer"/>
  <path class="fil0 str0" d="M2579381 483956c-67637,-166214 -166005,-326433 -387598,-326433 -584402,0 -511947,462048 -777587,727680 -336463,336470 -1233142,-782 -1295990,-492631 -25862,-202411 277293,-413006 320379,-93379 28386,210602 -159378,-17708 -159378,17708 0,265639 278403,300199 301047,0 30642,-406066 -545725,-398068 -566687,-17708 -48574,881652 1331674,1163383 1664652,460433 91592,-193378 141670,-301055 442725,-301055 144403,0 309514,159489 458437,144790 148938,14655 314012,-144790 458422,-144790 301055,0 351125,107677 442725,301055 332971,702950 1713226,421219 1664652,-460433 -20962,-380360 -597329,-388358 -566694,17708 22645,300199 301055,265639 301055,0 0,-35416 -187771,192894 -159378,-17708 43085,-319626 346233,-109032 320371,93379 -62841,491849 -959520,829102 -1295983,492631 -265639,-265632 -193185,-727680 -777587,-727680 -221593,0 -319939,160219 -387583,326433z"/>
 </g>
</svg>
