<?xml version="1.0" encoding="UTF-8"?>
<!DOCTYPE svg PUBLIC "-//W3C//DTD SVG 1.1//EN" "http://www.w3.org/Graphics/SVG/1.1/DTD/svg11.dtd">
<!-- Creator: CorelDRAW X5 -->
<svg xmlns="http://www.w3.org/2000/svg" xml:space="preserve" width="69.2893mm" height="19.8881mm" style="shape-rendering:geometricPrecision; text-rendering:geometricPrecision; image-rendering:optimizeQuality; fill-rule:evenodd; clip-rule:evenodd"
viewBox="0 0 5161186 1481415"
 xmlns:xlink="http://www.w3.org/1999/xlink">
 <defs>
  <style type="text/css">
   <![CDATA[
    .str0 {stroke:black;stroke-width:26279.2}
    .fil0 {fill:none}
   ]]>
  </style>
 </defs>
 <g id="Layer_x0020_1">
  <metadata id="CorelCorpID_0Corel-Layer"/>
  <path class="fil0 str0" d="M4190673 249064c671102,-447402 827742,797940 39940,697821 -352780,-44834 -540310,-620533 -885001,-676689 -358762,-58450 -648600,106048 -765016,326538 -116416,-220490 -406262,-384989 -765024,-326538 -344691,56156 -532221,631855 -884993,676689 -787809,100119 -631170,-1145223 39933,-697821 104461,-369950 -1160299,-387134 -929559,549293 196595,797895 1445027,764011 2154893,507036 196401,-71098 320192,-174241 384750,-288348 64558,114107 188342,217250 384743,288348 709873,256974 1958298,290859 2154893,-507036 230740,-936427 -1034020,-919243 -929559,-549293z"/>
 </g>
</svg>
