<?xml version="1.0" encoding="UTF-8"?>
<!DOCTYPE svg PUBLIC "-//W3C//DTD SVG 1.1//EN" "http://www.w3.org/Graphics/SVG/1.1/DTD/svg11.dtd">
<!-- Creator: CorelDRAW X5 -->
<svg xmlns="http://www.w3.org/2000/svg" xml:space="preserve" width="69.2983mm" height="49.5158mm" style="shape-rendering:geometricPrecision; text-rendering:geometricPrecision; image-rendering:optimizeQuality; fill-rule:evenodd; clip-rule:evenodd"
viewBox="0 0 5163026 3689143"
 xmlns:xlink="http://www.w3.org/1999/xlink">
 <defs>
  <style type="text/css">
   <![CDATA[
    .str0 {stroke:black;stroke-width:26285.1}
    .fil0 {fill:none}
   ]]>
  </style>
 </defs>
 <g id="Layer_x0020_1">
  <metadata id="CorelCorpID_0Corel-Layer"/>
  <path class="fil0 str0" d="M2581487 1097092c207815,1127624 523572,1698029 879487,2060582 369490,376404 925106,725889 1446130,370927 326225,-222284 277797,-579458 121964,-884590 -107234,-209849 -249880,-325249 -405714,-405371 192110,422194 317940,803038 42952,933339 -104507,49456 -301601,79973 -414594,55908 -690216,-147213 -664795,-2143975 -694656,-2562466 -74847,-644880 -400126,-811688 -975568,-500774 -575449,-310914 -900668,-144106 -975515,500774 -29861,418491 -4440,2415253 -694656,2562466 -112993,24065 -310087,-6452 -414602,-55908 -274981,-130301 -149150,-511145 42959,-933339 -155833,80122 -298479,195522 -405714,405371 -155833,305133 -204261,662307 121964,884590 521024,354961 1076640,5476 1446130,-370927 355915,-362553 671620,-932959 879435,-2060582z"/>
 </g>
</svg>
