<?xml version="1.0" encoding="UTF-8"?>
<!DOCTYPE svg PUBLIC "-//W3C//DTD SVG 1.1//EN" "http://www.w3.org/Graphics/SVG/1.1/DTD/svg11.dtd">
<!-- Creator: CorelDRAW X5 -->
<svg xmlns="http://www.w3.org/2000/svg" xml:space="preserve" width="70.1511mm" height="9.5603mm" style="shape-rendering:geometricPrecision; text-rendering:geometricPrecision; image-rendering:optimizeQuality; fill-rule:evenodd; clip-rule:evenodd"
viewBox="0 0 5339830 727720"
 xmlns:xlink="http://www.w3.org/1999/xlink">
 <defs>
  <style type="text/css">
   <![CDATA[
    .str0 {stroke:black;stroke-width:26854.8}
    .fil0 {fill:none}
   ]]>
  </style>
 </defs>
 <g id="Layer_x0020_1">
  <metadata id="CorelCorpID_0Corel-Layer"/>
  <path class="fil0 str0" d="M5293984 154796c-362136,112230 -1127566,254557 -1470489,59023 -528289,-228456 -931712,-277408 -1152632,-64031 -320,1796 -617,3600 -944,5412 -320,-1812 -639,-3616 -959,-5412 -220920,-213377 -624343,-164425 -1152632,64031 -342924,195534 -1108353,53207 -1470489,-59023 144299,149909 567467,464836 1592150,558500 760193,16510 983731,-157148 1031937,-348359 48199,191211 271714,364869 1031907,348359 1024683,-93664 1447844,-408591 1592150,-558500z"/>
 </g>
</svg>
