<?xml version="1.0" encoding="UTF-8"?>
<!DOCTYPE svg PUBLIC "-//W3C//DTD SVG 1.1//EN" "http://www.w3.org/Graphics/SVG/1.1/DTD/svg11.dtd">
<!-- Creator: CorelDRAW X5 -->
<svg xmlns="http://www.w3.org/2000/svg" xml:space="preserve" width="69.2971mm" height="20.362mm" style="shape-rendering:geometricPrecision; text-rendering:geometricPrecision; image-rendering:optimizeQuality; fill-rule:evenodd; clip-rule:evenodd"
viewBox="0 0 2098518 616621"
 xmlns:xlink="http://www.w3.org/1999/xlink">
 <defs>
  <style type="text/css">
   <![CDATA[
    .str0 {stroke:black;stroke-width:10683.8}
    .fil0 {fill:none}
   ]]>
  </style>
 </defs>
 <g id="Layer_x0020_1">
  <metadata id="CorelCorpID_0Corel-Layer"/>
  <path class="fil0 str0" d="M1049254 99912c199607,-225732 363937,-4645 553332,209240 166229,146709 396915,237848 359767,-59960 -25126,27079 -46006,54424 -78200,52638 -83478,-4636 -148444,-73073 -110908,-158725 75335,-118869 183957,-78175 259300,521 67909,69611 161923,415497 -240852,465333 -355025,23869 -660934,-141112 -742440,-261045 -81506,119932 -387406,284914 -742431,261045 -402775,-49837 -308761,-395722 -240852,-465333 75344,-78696 183966,-119390 259300,-521 37539,85652 -27430,154089 -110908,158725 -32194,1787 -53074,-25559 -78200,-52638 -37148,297808 193538,206669 359767,59960 189395,-213885 353716,-434972 553323,-209240z"/>
 </g>
</svg>
