<?xml version="1.0" encoding="UTF-8"?>
<!DOCTYPE svg PUBLIC "-//W3C//DTD SVG 1.1//EN" "http://www.w3.org/Graphics/SVG/1.1/DTD/svg11.dtd">
<!-- Creator: CorelDRAW X5 -->
<svg xmlns="http://www.w3.org/2000/svg" xml:space="preserve" width="69.2592mm" height="21.0889mm" style="shape-rendering:geometricPrecision; text-rendering:geometricPrecision; image-rendering:optimizeQuality; fill-rule:evenodd; clip-rule:evenodd"
viewBox="0 0 7501739 2284222"
 xmlns:xlink="http://www.w3.org/1999/xlink">
 <defs>
  <style type="text/css">
   <![CDATA[
    .str0 {stroke:black;stroke-width:38213.2}
    .fil0 {fill:none}
   ]]>
  </style>
 </defs>
 <g id="Layer_x0020_1">
  <metadata id="CorelCorpID_0Corel-Layer"/>
  <path class="fil0 str0" d="M3750815 285245c349508,-379251 867367,-85655 1479785,586650 233395,256228 515986,783283 851456,862233 718771,169186 1667439,-1238462 545610,-1277238 -578093,-19908 -534150,412059 -250108,780056 -165092,35917 -323859,17590 -452817,-259650 -262781,-564966 419359,-1188453 952004,-873368 2151635,1272884 -2012138,3187745 -3125909,1493628 -1113760,1694117 -5277468,-220744 -3125833,-1493628 532645,-315085 1214784,308402 952004,873368 -128959,277240 -287725,295567 -452817,259650 284043,-367997 327986,-799964 -250108,-780056 -1121829,38776 -173162,1446425 545599,1277238 335481,-78950 618072,-606006 851467,-862233 612418,-672305 1130148,-965901 1479666,-586650z"/>
 </g>
</svg>
